<mxfile host="app.diagrams.net" modified="2024-07-04T13:35:14.801Z" agent="Mozilla/5.0 (Windows NT 10.0; Win64; x64) AppleWebKit/537.36 (KHTML, like Gecko) Chrome/126.0.0.0 Safari/537.36 Edg/126.0.0.0" etag="Q_bhW-EpAO7hYobjRhNa" version="24.6.4" type="google">
  <diagram name="Page-1" id="xJ5e19ws3isUFD2Ght0b">
    <mxGraphModel dx="1002" dy="577" grid="1" gridSize="10" guides="1" tooltips="1" connect="1" arrows="1" fold="1" page="1" pageScale="1" pageWidth="850" pageHeight="1100" math="0" shadow="0">
      <root>
        <mxCell id="0" />
        <mxCell id="1" parent="0" />
        <mxCell id="xJKw7wT4daj87EqLPwgX-1" value="&lt;br&gt;&lt;div style=&quot;&quot;&gt;&lt;div style=&quot;text-align: left;&quot;&gt;BEGIN&lt;/div&gt;&lt;div style=&quot;text-align: left;&quot;&gt;&amp;nbsp; &amp;nbsp;INPUT num a&lt;/div&gt;&lt;div style=&quot;text-align: left;&quot;&gt;&lt;span style=&quot;white-space:pre&quot;&gt;&#x9;&lt;/span&gt; num b&lt;/div&gt;&lt;div style=&quot;text-align: left;&quot;&gt;&lt;span style=&quot;white-space:pre&quot;&gt;&#x9;&lt;/span&gt; num c&lt;/div&gt;&lt;div style=&quot;text-align: left;&quot;&gt;&amp;nbsp; &amp;nbsp;Average = (a + b + c) / 3&lt;/div&gt;&lt;div style=&quot;text-align: left;&quot;&gt;&amp;nbsp; &amp;nbsp; &amp;nbsp;Display &quot;Average&quot;&lt;/div&gt;&lt;div style=&quot;text-align: left;&quot;&gt;&amp;nbsp; &amp;nbsp;END IF&lt;/div&gt;&lt;div style=&quot;text-align: left;&quot;&gt;END&amp;nbsp;&lt;/div&gt;&lt;/div&gt;" style="rounded=1;whiteSpace=wrap;html=1;" parent="1" vertex="1">
          <mxGeometry x="570" y="30" width="190" height="180" as="geometry" />
        </mxCell>
        <mxCell id="LETITWtM0WfPBCC47d17-5" style="edgeStyle=orthogonalEdgeStyle;rounded=0;orthogonalLoop=1;jettySize=auto;html=1;entryX=0.5;entryY=0;entryDx=0;entryDy=0;" edge="1" parent="1" source="LETITWtM0WfPBCC47d17-1" target="LETITWtM0WfPBCC47d17-3">
          <mxGeometry relative="1" as="geometry" />
        </mxCell>
        <mxCell id="LETITWtM0WfPBCC47d17-1" value="Start" style="rounded=1;whiteSpace=wrap;html=1;" vertex="1" parent="1">
          <mxGeometry x="120" y="80" width="120" height="20" as="geometry" />
        </mxCell>
        <mxCell id="LETITWtM0WfPBCC47d17-6" style="edgeStyle=orthogonalEdgeStyle;rounded=0;orthogonalLoop=1;jettySize=auto;html=1;entryX=0.5;entryY=0;entryDx=0;entryDy=0;" edge="1" parent="1" source="LETITWtM0WfPBCC47d17-3" target="LETITWtM0WfPBCC47d17-4">
          <mxGeometry relative="1" as="geometry" />
        </mxCell>
        <mxCell id="LETITWtM0WfPBCC47d17-3" value="Input num" style="shape=parallelogram;perimeter=parallelogramPerimeter;whiteSpace=wrap;html=1;fixedSize=1;" vertex="1" parent="1">
          <mxGeometry x="120" y="150" width="120" height="60" as="geometry" />
        </mxCell>
        <mxCell id="LETITWtM0WfPBCC47d17-8" style="edgeStyle=orthogonalEdgeStyle;rounded=0;orthogonalLoop=1;jettySize=auto;html=1;entryX=0.5;entryY=0;entryDx=0;entryDy=0;" edge="1" parent="1" source="LETITWtM0WfPBCC47d17-4" target="LETITWtM0WfPBCC47d17-7">
          <mxGeometry relative="1" as="geometry" />
        </mxCell>
        <mxCell id="LETITWtM0WfPBCC47d17-4" value="r = Average = (a + b + c) / 3" style="rounded=0;whiteSpace=wrap;html=1;" vertex="1" parent="1">
          <mxGeometry x="95" y="260" width="170" height="60" as="geometry" />
        </mxCell>
        <mxCell id="LETITWtM0WfPBCC47d17-10" style="edgeStyle=orthogonalEdgeStyle;rounded=0;orthogonalLoop=1;jettySize=auto;html=1;entryX=0.5;entryY=0;entryDx=0;entryDy=0;" edge="1" parent="1" source="LETITWtM0WfPBCC47d17-7" target="LETITWtM0WfPBCC47d17-9">
          <mxGeometry relative="1" as="geometry" />
        </mxCell>
        <mxCell id="LETITWtM0WfPBCC47d17-7" value="Display number Everage" style="shape=parallelogram;perimeter=parallelogramPerimeter;whiteSpace=wrap;html=1;fixedSize=1;" vertex="1" parent="1">
          <mxGeometry x="120" y="370" width="120" height="60" as="geometry" />
        </mxCell>
        <mxCell id="LETITWtM0WfPBCC47d17-9" value="Stop" style="rounded=1;whiteSpace=wrap;html=1;" vertex="1" parent="1">
          <mxGeometry x="120" y="470" width="120" height="20" as="geometry" />
        </mxCell>
      </root>
    </mxGraphModel>
  </diagram>
</mxfile>
